<?xml version="1.0" encoding="utf-8"?><!-- Generator: Adobe Illustrator 26.0.1, SVG Export Plug-In . SVG Version: 6.00 Build 0)  --><svg version="1.1" id="Ebene_1" xmlns="http://www.w3.org/2000/svg" xmlns:xlink="http://www.w3.org/1999/xlink" x="0px" y="0px"	 viewBox="0 0 926.7 385.6" style="enable-background:new 0 0 926.7 385.6;" xml:space="preserve"><style type="text/css">	.st0{fill:#ED5A5A;stroke:#000000;stroke-width:0.5;stroke-miterlimit:10;}	.st1{fill:none;stroke:#000000;stroke-miterlimit:10;}	.st2{font-family:Liberation Sans,Arial,Sans-serif;}	.st3{font-size:14px;}	.st4{font-family:Liberation Sans,Arial,Sans-serif;font-weight:bold;}	.st5{font-size:18px;}	.st6{font-size:12px;}</style><rect x="21.7" y="144.4" class="st0" width="374.3" height="17"/><rect x="395.9" y="116" class="st0" width="229.3" height="17"/><rect x="625.4" y="144.4" class="st0" width="108.3" height="17"/><rect x="734" y="116" class="st0" width="23.5" height="17"/><rect x="815.6" y="144.4" class="st0" width="35.7" height="17"/><rect x="766" y="172.7" class="st0" width="19" height="17"/><rect x="790.7" y="116" class="st0" width="10.4" height="17"/><rect x="804.9" y="172.7" class="st0" width="10.4" height="17"/><rect x="758.1" y="116" class="st0" width="6.5" height="17"/><line class="st1" x1="14.2" y1="79.5" x2="864.6" y2="79.5"/><line class="st1" x1="14.2" y1="68.2" x2="14.2" y2="79.5"/><line class="st1" x1="42.5" y1="73.2" x2="42.5" y2="79.5"/><line class="st1" x1="70.9" y1="73.2" x2="70.9" y2="79.5"/><line class="st1" x1="99.2" y1="73.2" x2="99.2" y2="79.5"/><line class="st1" x1="127.6" y1="73.2" x2="127.6" y2="79.5"/><line class="st1" x1="155.9" y1="68.2" x2="155.9" y2="79.5"/><line class="st1" x1="184.3" y1="73.2" x2="184.3" y2="79.5"/><line class="st1" x1="212.6" y1="73.2" x2="212.6" y2="79.5"/><line class="st1" x1="241" y1="73.2" x2="241" y2="79.5"/><line class="st1" x1="269.3" y1="73.2" x2="269.3" y2="79.5"/><line class="st1" x1="297.7" y1="68.2" x2="297.7" y2="79.5"/><line class="st1" x1="326" y1="73.2" x2="326" y2="79.5"/><line class="st1" x1="354.4" y1="73.2" x2="354.4" y2="79.5"/><line class="st1" x1="382.7" y1="73.2" x2="382.7" y2="79.5"/><line class="st1" x1="411.1" y1="73.2" x2="411.1" y2="79.5"/><line class="st1" x1="439.4" y1="68.2" x2="439.4" y2="79.5"/><line class="st1" x1="467.7" y1="72.2" x2="467.7" y2="79.5"/><line class="st1" x1="496.1" y1="72.2" x2="496.1" y2="79.5"/><line class="st1" x1="524.4" y1="72.2" x2="524.4" y2="79.5"/><line class="st1" x1="552.8" y1="72.2" x2="552.8" y2="79.5"/><line class="st1" x1="581.1" y1="68.2" x2="581.1" y2="79.5"/><line class="st1" x1="609.5" y1="73.2" x2="609.5" y2="79.5"/><line class="st1" x1="637.8" y1="73.2" x2="637.8" y2="79.5"/><line class="st1" x1="666.2" y1="73.2" x2="666.2" y2="79.5"/><line class="st1" x1="694.5" y1="73.2" x2="694.5" y2="79.5"/><line class="st1" x1="722.9" y1="68.2" x2="722.9" y2="79.5"/><line class="st1" x1="751.2" y1="73.2" x2="751.2" y2="79.5"/><line class="st1" x1="779.6" y1="73.2" x2="779.6" y2="79.5"/><line class="st1" x1="807.9" y1="73.2" x2="807.9" y2="79.5"/><line class="st1" x1="836.3" y1="73.2" x2="836.3" y2="79.5"/><line class="st1" x1="864.6" y1="68.2" x2="864.6" y2="79.5"/><text transform="matrix(1 0 0 1 184.5737 138.8761)" class="st2 st3">ORF1a</text><text transform="matrix(1 0 0 1 507.1892 111.8061)" class="st2 st3">ORF1b</text><text transform="matrix(1 0 0 1 673.8254 139.4743)" class="st2 st3">S</text><text transform="matrix(1 0 0 1 707.4911 111.8059)" class="st2 st3">ORF3a</text><text transform="matrix(1 0 0 1 756.8807 99.2135)" class="st2 st3">E</text><line class="st1" x1="761.4" y1="103.1" x2="761.4" y2="111.1"/><text transform="matrix(1 0 0 1 770.1835 167.2568)" class="st2 st3">M</text><rect x="785.3" y="116" class="st0" width="5.3" height="17"/><text transform="matrix(1 0 0 1 774.2964 99.2137)" class="st2 st3">ORF6</text><text transform="matrix(1 0 0 1 793.3514 111.8055)" class="st2 st3">ORF7a</text><text transform="matrix(1 0 0 1 794.0149 205.3629)" class="st2 st3">ORF8</text><text transform="matrix(1 0 0 1 828.717 139.4742)" class="st2 st3">N</text><text transform="matrix(1 0 0 1 10.2815 63.0031)" class="st2 st3">0</text><text transform="matrix(1 0 0 1 140.3346 63.0031)" class="st2 st3">5000</text><text transform="matrix(1 0 0 1 278.1738 63.0031)" class="st2 st3">10000</text><text transform="matrix(1 0 0 1 419.9061 63.0031)" class="st2 st3">15000</text><text transform="matrix(1 0 0 1 561.6383 63.0031)" class="st2 st3">20000</text><text transform="matrix(1 0 0 1 703.3705 63.0031)" class="st2 st3">25000</text><text transform="matrix(1 0 0 1 845.1028 63.0031)" class="st2 st3">30000</text><line class="st1" x1="787.8" y1="103.1" x2="787.8" y2="111.1"/><text transform="matrix(1 0 0 1 890.7731 63.003)" class="st2 st3">ncl</text><text transform="matrix(0.9664 0 0 1 401.3066 250.8898)" class="st4 st5">Wuhan-Hu-1 (GenBank MN908947.3)</text><text transform="matrix(1 0 0 1 102.1782 199.8883)" class="st4 st6">ORF1a</text><text transform="matrix(1 0 0 1 102.1782 215.8883)" class="st4 st6">ORF1b</text><text transform="matrix(1 0 0 1 102.1782 231.8883)" class="st4 st6">S</text><text transform="matrix(1 0 0 1 102.1782 247.8883)" class="st4 st6">ORF3A</text><text transform="matrix(1 0 0 1 102.1782 263.8883)" class="st4 st6">E</text><text transform="matrix(1 0 0 1 102.1782 279.8883)" class="st4 st6">M</text><text transform="matrix(1 0 0 1 102.1782 295.8883)" class="st4 st6">ORF6</text><text transform="matrix(1 0 0 1 102.1782 311.8883)" class="st4 st6">ORF7a</text><text transform="matrix(1 0 0 1 102.1782 327.8883)" class="st4 st6">ORF8</text><text transform="matrix(1 0 0 1 102.1782 343.8883)" class="st4 st6">N</text><text transform="matrix(1 0 0 1 102.1782 359.8883)" class="st4 st6">ORF10</text><text transform="matrix(1 0 0 1 166.8134 199.8884)" class="st2 st6">266–13468</text><text transform="matrix(1 0 0 1 153.5134 215.8884)" class="st2 st6">13468–21555</text><text transform="matrix(1 0 0 1 153.5134 231.8884)" class="st2 st6">21563–25384</text><text transform="matrix(1 0 0 1 153.5134 247.8884)" class="st2 st6">25393–26220</text><text transform="matrix(1 0 0 1 153.5134 263.8884)" class="st2 st6">26245–26472</text><text transform="matrix(1 0 0 1 153.5134 279.8884)" class="st2 st6">26523–27191</text><text transform="matrix(1 0 0 1 153.5134 295.8884)" class="st2 st6">27202–27387</text><text transform="matrix(1 0 0 1 153.5134 311.8884)" class="st2 st6">27394–27759</text><text transform="matrix(1 0 0 1 153.5134 327.8884)" class="st2 st6">27894–28259</text><text transform="matrix(1 0 0 1 153.5134 343.8884)" class="st2 st6">28274–29533</text><text transform="matrix(1 0 0 1 153.5134 359.8884)" class="st2 st6">29558–29674</text><text transform="matrix(1 0 0 1 238.6503 199.8883)" class="st2 st6">4401 aa</text><text transform="matrix(1 0 0 1 238.6503 215.8883)" class="st2 st6">2696 aa</text><text transform="matrix(1 0 0 1 238.6503 231.8883)" class="st2 st6">1273 aa</text><text transform="matrix(1 0 0 1 245.3503 247.8883)" class="st2 st6">275 aa</text><text transform="matrix(1 0 0 1 251.9503 263.8883)" class="st2 st6">75 aa</text><text transform="matrix(1 0 0 1 245.3503 279.8883)" class="st2 st6">222 aa</text><text transform="matrix(1 0 0 1 251.9503 295.8883)" class="st2 st6">61 aa</text><text transform="matrix(1 0 0 1 245.3503 311.8883)" class="st2 st6">121 aa</text><text transform="matrix(1 0 0 1 245.3503 327.8883)" class="st2 st6">121 aa</text><text transform="matrix(1 0 0 1 245.3503 343.8883)" class="st2 st6">419 aa</text><text transform="matrix(1 0 0 1 251.9503 359.8883)" class="st2 st6">38 aa</text><rect x="94.5" y="183" class="st1" width="200.2" height="185.9"/><rect x="852" y="144.4" class="st0" width="3.3" height="17"/><text transform="matrix(1 0 0 1 837.3598 191.362)" class="st2 st3">ORF10</text><line class="st1" x1="853.9" y1="167.6" x2="853.9" y2="175.6"/></svg>